<svg xmlns="http://www.w3.org/2000/svg" width="40" height="40" viewBox="0 0 40 40"><path d="M20.04 29.43a9.52 9.52 0 0 1-5.27-1.6 9.477 9.477 0 0 1-3.49-4.25c-.72-1.73-.9-3.64-.54-5.48a9.508 9.508 0 0 1 2.59-4.85L5.94 5.84a20.075 20.075 0 0 0-4.38 6.47A19.879 19.879 0 0 0 0 19.98c0 2.63.5 5.24 1.51 7.67 1 2.43 2.48 4.64 4.34 6.5 1.86 1.86 4.07 3.33 6.5 4.34 2.43 1 5.04 1.51 7.67 1.51s5.24-.54 7.66-1.56a20.01 20.01 0 0 0 6.48-4.38l-7.41-7.41c-.88.88-1.92 1.58-3.07 2.06s-2.38.72-3.63.72Z" style="fill:#211d4f"/><path d="M40 19.95H29.53c0 1.24-.24 2.48-.72 3.63a9.531 9.531 0 0 1-2.06 3.07l7.41 7.41c1.85-1.85 3.32-4.05 4.33-6.47 1-2.42 1.52-5.02 1.51-7.63Z" style="fill:#bf5dff"/><path d="m26.75 13.25 7.41-7.41a19.775 19.775 0 0 0-6.47-4.33C25.26.51 22.66 0 20.04 0v10.47a9.425 9.425 0 0 1 6.7 2.78Z" style="fill:#03e9ca"/><path d="M29.53 19.95H40c0-2.62-.51-5.22-1.51-7.64s-2.47-4.62-4.33-6.47l-7.41 7.41c.88.88 1.58 1.92 2.06 3.07s.72 2.38.72 3.63Z" style="fill:#ffca6a"/><path d="M20.04 10.47V0c-2.62 0-5.22.51-7.64 1.51S7.78 3.98 5.93 5.84l7.41 7.41c.88-.88 1.92-1.58 3.07-2.06s2.38-.72 3.63-.72Z" style="fill:#0075f4"/></svg>
